<svg width="147" height="5" viewBox="0 0 147 5" fill="none" xmlns="http://www.w3.org/2000/svg">
<path d="M30.1334 3.63556L30.2097 3.7501C29.0263 3.59739 27.6901 3.7501 26.4303 3.67374L26.5067 3.71192C23.2999 3.7501 20.3603 3.59739 17.1917 3.52103C17.2299 3.52103 17.2681 3.55921 17.3063 3.55921C17.1536 3.52103 17.0009 3.48285 16.81 3.48285C16.7718 3.52103 16.8482 3.52103 16.9245 3.52103C16.2373 3.67374 14.9775 3.44467 14.5576 3.55921C14.3667 3.55921 14.2904 3.48285 14.4049 3.44467C11.9235 3.40649 9.28933 3.36831 6.76972 3.29195C6.65519 3.33013 6.61702 3.33013 6.65519 3.40649C4.47917 3.13923 2.18862 3.25377 0.0125897 3.29195C-0.063762 3.21559 0.241645 3.21559 0.0125897 3.17741C0.699756 3.06288 1.31057 3.29195 1.95956 3.17741L1.88321 3.13923C2.34132 3.10105 1.95956 3.29195 2.45585 3.21559C2.64673 3.17741 2.41767 3.13923 2.49402 3.13923C3.4866 3.17741 4.51734 3.10105 5.47174 3.25377C5.7008 3.13923 6.54067 3.25377 6.92243 3.13923C7.18966 3.17741 7.41871 3.17741 7.53324 3.25377C10.9691 3.17741 14.5576 3.29195 18.108 3.29195C19.7877 3.52103 21.7728 3.25377 23.758 3.33013V3.29195C24.407 3.36831 25.3614 3.36831 26.1249 3.33013L26.7739 3.44467C31.4313 3.25377 36.1652 3.36831 40.8608 3.29195C46.2054 3.21559 50.901 3.06288 56.1311 3.36831C56.1311 3.33013 56.1693 3.33013 56.0166 3.33013C57.5055 3.36831 58.8798 3.29195 60.2923 3.33013V3.29195C62.0484 3.40649 63.8808 3.36831 65.6751 3.36831H66.3623C66.5532 3.36831 66.7822 3.33013 66.9731 3.29195C67.393 3.17741 67.7748 2.94834 68.1184 2.71926C68.8055 2.22293 69.4164 1.57388 70.0272 0.963015C70.7525 0.199429 71.936 -0.182364 73.0431 0.0848908C73.5775 0.199429 74.112 0.504863 74.5319 0.886656C74.9519 1.26845 75.2954 1.68842 75.6772 2.10839C76.059 2.49019 76.4789 2.87198 76.9752 3.13923C77.2042 3.25377 77.4715 3.36831 77.7387 3.44467C78.0059 3.52103 78.2732 3.52103 78.5404 3.52103C79.6475 3.52103 80.7546 3.55921 81.8617 3.55921V3.52103C85.3739 3.63556 88.7334 3.36831 92.2074 3.44467C95.7959 3.33013 99.5753 3.71192 103.202 3.55921C105.454 3.33013 108.394 3.82646 110.494 3.59739C114.807 3.21559 119.007 3.48285 123.321 3.67374C127.291 3.55921 131.299 3.86464 135.155 3.59739C136.988 3.78828 139.011 3.36831 141.034 3.44467L140.958 3.52103C141.683 3.33013 142.6 3.78828 143.058 3.52103H142.981C143.363 3.36831 143.898 3.82646 144.127 3.67374L144.203 3.7501C144.661 3.78828 144.241 3.67374 144.623 3.63556C144.776 3.63556 144.661 3.7501 144.966 3.71192C145.043 3.44467 146.112 3.78828 146.15 3.48285C145.883 3.48285 146.532 3.36831 145.959 3.29195C146.112 3.25377 146.913 3.29195 146.837 3.40649C146.913 3.55921 147.219 3.67374 146.723 3.78828L146.646 3.67374C146.493 3.78828 146.532 3.71192 146.455 3.78828C145.844 3.78828 145.73 3.941 145.31 4.01736C145.005 3.90282 144.585 3.97918 144.356 3.97918L144.279 4.01736C144.127 4.1319 143.554 3.78828 143.745 3.97918C142.485 3.941 141.034 3.941 139.622 3.941C139.431 3.86464 138.553 3.941 138.858 3.78828C138.515 3.941 137.446 4.01736 137.064 3.97918C137.064 3.97918 137.102 4.01736 137.14 4.01736C136.377 4.24643 136.224 3.82646 135.537 4.09372C135.422 3.90282 134.239 4.17007 133.857 3.941C133.666 3.97918 133.666 4.01736 133.666 4.05554C132.368 4.05554 130.956 4.1319 129.887 4.1319C128.971 3.97918 127.635 4.20825 126.871 3.97918C126.222 4.01736 125.153 4.1319 124.237 4.01736L124.313 4.05554C123.283 4.05554 121.985 4.01736 121.259 3.90282C120.954 4.1319 120.496 4.09372 120.038 4.17007C119.35 4.05554 117.938 4.09372 116.907 4.01736C116.754 4.1319 116.029 3.97918 115.991 4.1319C113.013 3.82646 109.348 3.941 106.18 4.17007H106.218C105.798 4.09372 105.34 3.90282 104.92 3.82646C104.882 3.82646 104.882 3.86464 104.958 3.86464C104.385 3.82646 103.851 3.97918 103.278 3.941C103.278 3.941 103.317 3.97918 103.393 3.97918C102.858 3.90282 102.286 4.09372 101.637 3.97918H101.599L101.179 3.941C101.179 3.97918 101.217 4.05554 101.408 4.05554C96.4449 4.09372 91.3293 3.86464 86.2137 3.90282L86.4046 3.941L85.412 3.86464C85.412 3.90282 85.4502 3.90282 85.5266 3.90282C84.2668 3.97918 82.9688 3.86464 81.7472 3.86464C81.7472 3.90282 81.938 3.941 81.7853 3.97918C80.8691 3.86464 80.3347 4.1319 79.8765 3.86464C79.8384 3.86464 79.8002 3.941 79.9147 3.941C79.6093 3.941 79.2657 3.90282 78.9603 3.90282C78.6549 3.90282 78.3495 3.90282 77.9678 3.86464C77.2424 3.7501 76.6698 3.36831 76.1353 2.94834C75.639 2.52837 75.1809 2.03203 74.7228 1.57388C74.4938 1.34481 74.3029 1.11573 74.0738 0.963015C73.8448 0.810297 73.5775 0.65758 73.3103 0.581222C72.8904 0.352146 72.3559 0.275788 71.8214 0.390326C71.287 0.466684 70.7907 0.733939 70.4089 1.07755C69.6454 1.84114 68.8819 2.79562 67.8511 3.29195L67.8893 3.33013C67.5457 3.48285 67.2021 3.63556 66.8204 3.67374C66.4386 3.71192 66.095 3.67374 65.7133 3.67374C64.988 3.67374 64.2626 3.67374 63.4991 3.67374C62.0102 3.71192 60.5214 3.7501 59.0325 3.71192C57.8109 3.7501 56.971 3.67374 55.7494 3.67374L55.7112 3.7501C53.6497 3.52103 51.3592 3.97918 49.1831 3.71192L49.3358 3.78828C48.9923 3.67374 48.0379 3.82646 48.1524 3.59739L47.7706 3.67374C46.3199 3.36831 45.0983 3.82646 43.304 3.59739L43.4186 3.63556C42.9223 3.59739 42.3878 3.55921 42.0061 3.59739C42.0824 3.59739 42.0442 3.63556 42.1588 3.63556C40.6699 3.86464 38.9902 3.59739 37.425 3.63556L37.6158 3.7501C36.8523 3.63556 35.4398 3.7501 34.4472 3.67374L34.5236 3.71192L34.0273 3.63556V3.71192C32.653 3.7501 31.4313 3.67374 30.1334 3.63556Z" fill="url(#paint0_linear_3877_1278)"/>
<path d="M30.1334 0.53451L30.2097 0.419972C29.0263 0.572689 27.6901 0.419972 26.4303 0.496331L26.5067 0.458151C23.2999 0.419972 20.3603 0.572689 17.1917 0.649048C17.2299 0.649048 17.2681 0.610869 17.3063 0.610869C17.1536 0.649048 17.0009 0.687227 16.81 0.687227C16.7718 0.649048 16.8482 0.649048 16.9245 0.649048C16.2373 0.496331 14.9775 0.725406 14.5576 0.610869C14.3667 0.610869 14.2904 0.687227 14.4049 0.725406C11.9235 0.763586 9.28933 0.801765 6.76972 0.878123C6.65519 0.839944 6.61702 0.839944 6.65519 0.763586C4.47917 1.03084 2.18862 0.916303 0.0125897 0.878123C-0.063762 0.954482 0.241645 0.954482 0.0125897 0.992661C0.699756 1.1072 1.31057 0.878124 1.95956 0.992661L1.88321 1.03084C2.34132 1.06902 1.95956 0.878123 2.45585 0.954482C2.64673 0.992661 2.41767 1.03084 2.49402 1.03084C3.4866 0.992661 4.51734 1.06902 5.47174 0.916303C5.7008 1.03084 6.54067 0.916303 6.92243 1.03084C7.18966 0.992661 7.41871 0.992661 7.53324 0.916303C10.9691 0.992661 14.5576 0.878123 18.108 0.878123C19.7877 0.649048 21.7728 0.916303 23.758 0.839944V0.878123C24.407 0.801765 25.3614 0.801765 26.1249 0.839944L26.7739 0.725406C31.4313 0.916303 36.1652 0.801765 40.8608 0.878123C46.2054 0.954482 50.901 1.1072 56.1311 0.801765C56.1311 0.839944 56.1693 0.839944 56.0166 0.839944C57.5055 0.801765 58.8798 0.878124 60.2923 0.839944V0.878123C62.0484 0.763586 63.8808 0.801765 65.6751 0.801765L66.3623 0.801765C66.5532 0.801765 66.7822 0.839944 66.9731 0.878123C67.393 0.992661 67.7748 1.22174 68.1184 1.45081C68.8055 1.94714 69.4164 2.59619 70.0272 3.20706C70.7525 3.97065 71.936 4.35244 73.0431 4.08518C73.5775 3.97065 74.112 3.66521 74.5319 3.28342C74.9519 2.90163 75.2954 2.48165 75.6772 2.06168C76.059 1.67989 76.4789 1.2981 76.9752 1.03084C77.2042 0.916303 77.4715 0.801765 77.7387 0.725406C78.0059 0.649048 78.2732 0.649048 78.5404 0.649048C79.6475 0.649048 80.7546 0.610869 81.8617 0.610869V0.649048C85.3739 0.53451 88.7334 0.801765 92.2074 0.725406C95.7959 0.839944 99.5753 0.458151 103.202 0.610869C105.454 0.839944 108.394 0.343614 110.494 0.572689C114.807 0.954482 119.007 0.687227 123.321 0.496331C127.291 0.610868 131.299 0.305434 135.155 0.572689C136.988 0.381793 139.011 0.801765 141.034 0.725406L140.958 0.649048C141.683 0.839944 142.6 0.381793 143.058 0.649048H142.981C143.363 0.801765 143.898 0.343613 144.127 0.496331L144.203 0.419972C144.661 0.381793 144.241 0.496331 144.623 0.53451C144.776 0.53451 144.661 0.419972 144.966 0.458151C145.043 0.725406 146.112 0.381793 146.15 0.687227C145.883 0.687227 146.532 0.801765 145.959 0.878123C146.112 0.916303 146.913 0.878124 146.837 0.763586C146.913 0.610869 147.219 0.496331 146.723 0.381793L146.646 0.496331C146.493 0.381793 146.532 0.458151 146.455 0.381793C145.844 0.381793 145.73 0.229076 145.31 0.152717C145.005 0.267255 144.585 0.190896 144.356 0.190896L144.279 0.152717C144.127 0.0381793 143.554 0.381793 143.745 0.190896C142.485 0.229076 141.034 0.229076 139.622 0.229076C139.431 0.305434 138.553 0.229076 138.858 0.381793C138.515 0.229076 137.446 0.152717 137.064 0.190896C137.064 0.190896 137.102 0.152717 137.14 0.152717C136.377 -0.0763585 136.224 0.343613 135.537 0.0763585C135.422 0.267255 134.239 -4.55132e-08 133.857 0.229076C133.666 0.190896 133.666 0.152717 133.666 0.114538C132.368 0.114538 130.956 0.0381792 129.887 0.0381792C128.971 0.190896 127.635 -0.0381793 126.871 0.190896C126.222 0.152717 125.153 0.0381793 124.237 0.152717L124.313 0.114538C123.283 0.114538 121.985 0.152717 121.259 0.267255C120.954 0.0381792 120.496 0.0763586 120.038 0C119.35 0.114538 117.938 0.0763586 116.907 0.152717C116.754 0.0381793 116.029 0.190896 115.991 0.0381792C113.013 0.343614 109.348 0.229076 106.18 0L106.218 0C105.798 0.0763586 105.34 0.267255 104.92 0.343614C104.882 0.343614 104.882 0.305434 104.958 0.305434C104.385 0.343613 103.851 0.190896 103.278 0.229076C103.278 0.229076 103.317 0.190896 103.393 0.190896C102.858 0.267255 102.286 0.0763586 101.637 0.190896L101.599 0.190896L101.179 0.229076C101.179 0.190896 101.217 0.114538 101.408 0.114538C96.4449 0.0763585 91.3293 0.305434 86.2137 0.267255L86.4046 0.229076L85.412 0.305434C85.412 0.267255 85.4502 0.267255 85.5266 0.267255C84.2668 0.190896 82.9688 0.305434 81.7472 0.305434C81.7472 0.267255 81.938 0.229076 81.7853 0.190896C80.8691 0.305434 80.3347 0.0381792 79.8765 0.305434C79.8384 0.305434 79.8002 0.229076 79.9147 0.229076C79.6093 0.229076 79.2657 0.267255 78.9603 0.267255C78.6549 0.267255 78.3495 0.267255 77.9678 0.305434C77.2424 0.419972 76.6698 0.801765 76.1353 1.22174C75.639 1.64171 75.1809 2.13804 74.7228 2.59619C74.4938 2.82527 74.3029 3.05434 74.0738 3.20706C73.8448 3.35978 73.5775 3.51249 73.3103 3.58885C72.8904 3.81793 72.3559 3.89429 71.8214 3.77975C71.287 3.70339 70.7907 3.43614 70.4089 3.09252C69.6454 2.32894 68.8819 1.37445 67.8511 0.878123L67.8893 0.839944C67.5457 0.687227 67.2021 0.53451 66.8204 0.496331C66.4386 0.458151 66.095 0.496331 65.7133 0.496331C64.988 0.496331 64.2626 0.496331 63.4991 0.496331C62.0102 0.458151 60.5214 0.419972 59.0325 0.458151C57.8109 0.419972 56.971 0.496331 55.7494 0.496331L55.7112 0.419972C53.6497 0.649048 51.3592 0.190896 49.1831 0.458151L49.3358 0.381793C48.9923 0.496331 48.0379 0.343614 48.1524 0.572689L47.7706 0.496331C46.3199 0.801765 45.0983 0.343614 43.304 0.572689L43.4186 0.53451C42.9223 0.572689 42.3878 0.610869 42.0061 0.572689C42.0824 0.572689 42.0442 0.53451 42.1588 0.53451C40.6699 0.305434 38.9902 0.572689 37.425 0.53451L37.6158 0.419972C36.8523 0.53451 35.4398 0.419972 34.4472 0.496331L34.5236 0.458151L34.0273 0.53451V0.458151C32.653 0.419972 31.4313 0.496331 30.1334 0.53451Z" fill="url(#paint1_linear_3877_1278)"/>
<defs>
<linearGradient id="paint0_linear_3877_1278" x1="-2.07601" y1="2.09018" x2="146.967" y2="2.09018" gradientUnits="userSpaceOnUse">
<stop stop-color="#0F6CBD" stop-opacity="0"/>
<stop offset="0.25" stop-color="#0F6CBD"/>
<stop offset="0.500694" stop-color="#0F6CBD"/>
<stop offset="0.75" stop-color="#0F6CBD"/>
<stop offset="1" stop-color="#0F6CBD" stop-opacity="0"/>
</linearGradient>
<linearGradient id="paint1_linear_3877_1278" x1="-2.07601" y1="2.07989" x2="146.967" y2="2.07989" gradientUnits="userSpaceOnUse">
<stop stop-color="#0F6CBD" stop-opacity="0"/>
<stop offset="0.25" stop-color="#0F6CBD"/>
<stop offset="0.500694" stop-color="#0F6CBD"/>
<stop offset="0.75" stop-color="#0F6CBD"/>
<stop offset="1" stop-color="#0F6CBD" stop-opacity="0"/>
</linearGradient>
</defs>
</svg>
