<svg width="40" height="41" viewBox="0 0 40 41" fill="none" xmlns="http://www.w3.org/2000/svg">
<path d="M21.1667 13.6702C21.1667 13.3608 21.0438 13.0641 20.825 12.8453C20.6062 12.6265 20.3095 12.5036 20 12.5036C19.6906 12.5036 19.3939 12.6265 19.1751 12.8453C18.9563 13.0641 18.8334 13.3608 18.8334 13.6702V19.5036H13C12.6906 19.5036 12.3939 19.6265 12.1751 19.8453C11.9563 20.0641 11.8334 20.3608 11.8334 20.6702C11.8334 20.9797 11.9563 21.2764 12.1751 21.4952C12.3939 21.714 12.6906 21.8369 13 21.8369H18.8334V27.6702C18.8334 27.9797 18.9563 28.2764 19.1751 28.4952C19.3939 28.714 19.6906 28.8369 20 28.8369C20.3095 28.8369 20.6062 28.714 20.825 28.4952C21.0438 28.2764 21.1667 27.9797 21.1667 27.6702V21.8369H27C27.3095 21.8369 27.6062 21.714 27.825 21.4952C28.0438 21.2764 28.1667 20.9797 28.1667 20.6702C28.1667 20.3608 28.0438 20.0641 27.825 19.8453C27.6062 19.6265 27.3095 19.5036 27 19.5036H21.1667V13.6702Z" fill="black"/>
</svg>
